<?xml version="1.0" encoding="utf-8"?>
<!-- Generator: Adobe Illustrator 25.2.3, SVG Export Plug-In . SVG Version: 6.00 Build 0)  -->
<svg version="1.1" id="Layer_1" xmlns="http://www.w3.org/2000/svg" xmlns:xlink="http://www.w3.org/1999/xlink" x="0px" y="0px"
	 viewBox="0 0 566 566" style="enable-background:new 0 0 566 566;" xml:space="preserve">
<style type="text/css">
	.st0{opacity:5.000000e-02;}
	.st1{opacity:5.000000e-02;fill:none;stroke:#FF00FF;}
	.st2{fill:#FFFFFF;}
	.st3{fill:none;stroke:#FFFFFF;stroke-width:10;stroke-linecap:round;stroke-linejoin:round;stroke-miterlimit:10;}
	.st4{fill:#3EC188;}
</style>
<path class="st0" d="M233,233L233,233z"/>
<path class="st1" d="M233,233L233,233L233,233L233,233z"/>
<g class="st0">
	<g>
		<g>
			<path class="st2" d="M50.2,428c-3.9,0-7.2-2.9-7.6-6.8c-0.5-4.2,2.5-8,6.8-8.5l57.1-6.6c4.2-0.5,8,2.5,8.5,6.8s-2.5,8-6.8,8.5
				l-57.1,6.6C50.8,428,50.5,428,50.2,428z"/>
		</g>
		<g>
			<path class="st2" d="M54.8,467.9c-3.9,0-7.2-2.9-7.6-6.8c-0.5-4.2,2.5-8,6.8-8.5l35.8-4.1c4.2-0.5,8,2.5,8.5,6.8s-2.5,8-6.8,8.5
				l-35.8,4.1C55.4,467.9,55.1,467.9,54.8,467.9z"/>
		</g>
		<g>
			<path class="st2" d="M487.8,377.4c-3.9,0-7.2-2.9-7.6-6.8c-0.5-4.2,2.5-8,6.8-8.5l57.1-6.6c4.2-0.5,8,2.5,8.5,6.8
				c0.5,4.2-2.5,8-6.8,8.5l-57.1,6.6C488.4,377.4,488.1,377.4,487.8,377.4z"/>
		</g>
		<g>
			<path class="st2" d="M230,486c-23.5,0-43.8-17.7-46.6-41.6c-3-25.7,15.5-49.1,41.3-52c25.7-3,49.1,15.5,52,41.3l0,0
				c3,25.7-15.5,49.1-41.3,52C233.6,485.9,231.7,486,230,486z M230,407.5c-1.2,0-2.4,0.1-3.6,0.2c-17.3,2-29.7,17.7-27.7,35
				c2,17.3,17.7,29.7,35,27.7c17.3-2,29.7-17.7,27.7-35l0,0C259.5,419.3,245.8,407.5,230,407.5z"/>
		</g>
		<g>
			<path class="st3" d="M408.9,457.9"/>
		</g>
		<g>
			<path class="st2" d="M351.8,472.2c-3.9,0-7.2-2.9-7.6-6.8l-9-78c-0.5-4.2,2.5-8,6.8-8.5c4.2-0.5,8,2.5,8.5,6.8l9,78
				c0.5,4.2-2.5,8-6.8,8.5C352.4,472.2,352.1,472.2,351.8,472.2z"/>
		</g>
		<g>
			<path class="st2" d="M408.9,465.6c-2.1,0-4.1-0.8-5.6-2.5l-66.1-71.4c-2.9-3.1-2.7-8,0.4-10.9c3.1-2.9,8-2.7,10.9,0.4l66.1,71.4
				c2.9,3.1,2.7,8-0.4,10.9C412.7,464.9,410.8,465.6,408.9,465.6z"/>
		</g>
		<g>
			<path class="st2" d="M408.9,465.6c-3.9,0-7.2-2.9-7.6-6.8l-9-78c-0.5-4.2,2.5-8,6.8-8.5c4.2-0.5,8,2.5,8.5,6.8l9,78
				c0.5,4.2-2.5,8-6.8,8.5C409.5,465.6,409.2,465.6,408.9,465.6z"/>
		</g>
		<g>
			<path class="st2" d="M525.4,452.1c-0.5,0-1,0-1.5-0.1c-0.5-0.1-1-0.2-1.4-0.4c-0.5-0.2-0.9-0.4-1.3-0.7c-0.4-0.3-0.8-0.6-1.2-1
				c-0.4-0.4-0.7-0.7-1-1.2c-0.3-0.4-0.5-0.9-0.7-1.3c-0.2-0.5-0.3-1-0.4-1.4c-0.1-0.5-0.2-1-0.2-1.5c0-0.5,0.1-1,0.2-1.5
				c0.1-0.5,0.2-1,0.4-1.4c0.2-0.5,0.4-0.9,0.7-1.3c0.3-0.4,0.6-0.8,1-1.2c0.4-0.4,0.8-0.7,1.2-1c0.4-0.3,0.9-0.5,1.3-0.7
				c0.5-0.2,1-0.3,1.4-0.4c1-0.2,2-0.2,3,0c0.5,0.1,1,0.2,1.4,0.4c0.5,0.2,0.9,0.4,1.3,0.7c0.4,0.3,0.8,0.6,1.2,1
				c0.4,0.4,0.7,0.8,1,1.2c0.3,0.4,0.5,0.9,0.7,1.3c0.2,0.5,0.3,1,0.4,1.4c0.1,0.5,0.2,1,0.2,1.5c0,0.5-0.1,1-0.2,1.5
				c-0.1,0.5-0.2,1-0.4,1.4c-0.2,0.5-0.4,0.9-0.7,1.3c-0.3,0.4-0.6,0.8-1,1.2c-0.4,0.4-0.8,0.7-1.2,1c-0.4,0.3-0.9,0.5-1.3,0.7
				c-0.5,0.2-1,0.3-1.4,0.4C526.4,452.1,525.9,452.1,525.4,452.1z"/>
		</g>
		<g>
			<path class="st2" d="M59.2,506c-2,0-4-0.8-5.4-2.2c-0.4-0.4-0.7-0.8-1-1.2c-0.3-0.4-0.5-0.9-0.7-1.3c-0.2-0.5-0.4-0.9-0.4-1.4
				c-0.1-0.5-0.2-1-0.2-1.5c0-0.5,0.1-1,0.2-1.5c0.1-0.5,0.2-1,0.4-1.4c0.2-0.5,0.4-0.9,0.7-1.3c0.3-0.4,0.6-0.8,1-1.2
				c1.4-1.4,3.4-2.3,5.4-2.3c2,0,4,0.8,5.4,2.3c0.4,0.4,0.7,0.7,1,1.2c0.3,0.4,0.5,0.9,0.7,1.3c0.2,0.5,0.3,0.9,0.4,1.4
				c0.1,0.5,0.2,1,0.2,1.5c0,0.5,0,1-0.2,1.5c-0.1,0.5-0.2,1-0.4,1.4c-0.2,0.5-0.4,0.9-0.7,1.3c-0.3,0.4-0.6,0.8-1,1.2
				C63.2,505.2,61.3,506,59.2,506z"/>
		</g>
	</g>
	<g>
		<g>
			<path class="st4" d="M52.2,303.8c-11.6,0-21.5-8.7-22.9-20.4l-21-181.7c-1.2-10.2,4.5-20,14-23.9s20.4-1.2,26.9,6.8l135.5,168.5
				c8,9.9,6.4,24.4-3.5,32.4c-9.9,8-24.4,6.4-32.4-3.5L63.3,175.7l11.8,102.4c1.5,12.7-7.6,24.1-20.3,25.6
				C54,303.7,53.1,303.8,52.2,303.8z"/>
		</g>
		<g>
			<path class="st4" d="M166.7,290.6c-3.3,0-6.7-0.7-10-2.3c-11.5-5.5-16.3-19.3-10.8-30.8l93.5-195c4.4-9.3,14.5-14.5,24.6-12.8
				c10.1,1.7,17.9,9.9,19.1,20.1l21,181.8c1.5,12.7-7.6,24.1-20.3,25.6c-12.6,1.5-24.1-7.6-25.6-20.3l-11.8-102.4l-59,123
				C183.5,285.7,175.3,290.6,166.7,290.6z"/>
		</g>
	</g>
	<g>
		<g>
			<path class="st2" d="M510.2,250.9c-3.8,0-7.6-0.9-11.1-2.9l-135.3-74.8c-6.5-3.6-10.8-10-11.7-17.3c-0.9-7.3,1.7-14.6,7.1-19.7
				l114.3-107c9.3-8.7,23.9-8.2,32.6,1.1c8.7,9.3,8.2,23.9-1.1,32.6l-91.1,85.3l107.5,59.4c11.1,6.2,15.2,20.2,9,31.3
				C526.2,246.6,518.3,250.9,510.2,250.9z"/>
		</g>
	</g>
</g>
</svg>
