<?xml version="1.0" encoding="utf-8"?>
<!-- Generator: Adobe Illustrator 25.2.3, SVG Export Plug-In . SVG Version: 6.00 Build 0)  -->
<svg version="1.1" id="Layer_1" xmlns="http://www.w3.org/2000/svg" xmlns:xlink="http://www.w3.org/1999/xlink" x="0px" y="0px"
	 viewBox="0 0 512 512" style="enable-background:new 0 0 512 512;" xml:space="preserve">
<style type="text/css">
	.st0{fill:#FFFFFF;}
	.st1{fill:none;stroke:#FFFFFF;stroke-width:30;stroke-linecap:round;stroke-linejoin:round;stroke-miterlimit:10;}
	.st2{fill:#3EC188;}
</style>
<g>
	<g>
		<path class="st0" d="M432.7,270.5h-177c-8.3,0-15-6.7-15-15s6.7-15,15-15h177c8.3,0,15,6.7,15,15S441,270.5,432.7,270.5z"/>
	</g>
	<g>
		<path class="st0" d="M344.2,270.5c-57.1,0-103.5-46.4-103.5-103.5S287.2,63.5,344.2,63.5S447.7,110,447.7,167
			S401.3,270.5,344.2,270.5z M344.2,93.5c-40.5,0-73.5,33-73.5,73.5s33,73.5,73.5,73.5s73.5-33,73.5-73.5S384.7,93.5,344.2,93.5z"/>
	</g>
	<g>
		<g>
			<path class="st1" d="M255.7,432.4"/>
		</g>
		<g>
			<path class="st0" d="M78.8,447.4c-8.3,0-15-6.7-15-15v-177c0-8.3,6.7-15,15-15s15,6.7,15,15v177
				C93.8,440.7,87.1,447.4,78.8,447.4z"/>
		</g>
		<g>
			<path class="st0" d="M255.7,447.4c-3.8,0-7.7-1.5-10.6-4.4l-177-177c-5.9-5.9-5.9-15.4,0-21.2c5.9-5.9,15.4-5.9,21.2,0l177,177
				c5.9,5.9,5.9,15.4,0,21.2C263.4,446,259.6,447.4,255.7,447.4z"/>
		</g>
		<g>
			<path class="st0" d="M255.7,447.4c-8.3,0-15-6.7-15-15v-177c0-8.3,6.7-15,15-15s15,6.7,15,15v177
				C270.7,440.7,264,447.4,255.7,447.4z"/>
		</g>
	</g>
	<g>
		<path class="st0" d="M344.2,447.5c-0.5,0-1,0-1.5-0.1c-0.5,0-1-0.1-1.5-0.2c-0.5-0.1-1-0.2-1.4-0.4c-0.5-0.1-0.9-0.3-1.4-0.5
			c-0.5-0.2-0.9-0.4-1.3-0.6c-0.4-0.2-0.9-0.5-1.3-0.8c-0.4-0.3-0.8-0.6-1.2-0.9c-0.4-0.3-0.8-0.6-1.1-1c-0.3-0.3-0.7-0.7-1-1.1
			c-0.3-0.4-0.6-0.8-0.9-1.2c-0.3-0.4-0.5-0.8-0.8-1.3c-0.2-0.4-0.4-0.9-0.6-1.3c-0.2-0.5-0.3-0.9-0.5-1.4c-0.2-0.5-0.3-1-0.4-1.4
			c-0.1-0.5-0.2-1-0.2-1.5c-0.1-0.5-0.1-1-0.1-1.5c0-0.5,0-1,0.1-1.5c0-0.5,0.1-1,0.2-1.5c0.1-0.5,0.2-1,0.4-1.4
			c0.1-0.5,0.3-0.9,0.5-1.4c0.2-0.4,0.4-0.9,0.6-1.3c0.2-0.4,0.5-0.9,0.8-1.3c0.3-0.4,0.6-0.8,0.9-1.2c0.3-0.4,0.7-0.8,1-1.1
			c0.3-0.4,0.7-0.7,1.1-1c0.4-0.3,0.8-0.6,1.2-0.9c0.4-0.3,0.8-0.5,1.3-0.8c0.4-0.2,0.9-0.4,1.3-0.6c0.5-0.2,0.9-0.4,1.4-0.5
			c0.5-0.1,0.9-0.3,1.4-0.4c0.5-0.1,1-0.2,1.5-0.2c1-0.1,2-0.1,3,0c0.5,0.1,1,0.1,1.5,0.2c0.5,0.1,1,0.2,1.4,0.4
			c0.5,0.1,0.9,0.3,1.4,0.5c0.4,0.2,0.9,0.4,1.3,0.6c0.4,0.2,0.9,0.5,1.3,0.8s0.8,0.6,1.2,0.9c0.4,0.3,0.8,0.6,1.1,1
			c0.3,0.3,0.7,0.7,1,1.1c0.3,0.4,0.6,0.8,0.9,1.2c0.3,0.4,0.5,0.8,0.8,1.3c0.2,0.4,0.4,0.9,0.6,1.3c0.2,0.5,0.4,0.9,0.5,1.4
			c0.1,0.5,0.3,0.9,0.4,1.4c0.1,0.5,0.2,1,0.2,1.5c0,0.5,0.1,1,0.1,1.5c0,0.5,0,1-0.1,1.5c0,0.5-0.1,1-0.2,1.5
			c-0.1,0.5-0.2,0.9-0.4,1.4c-0.1,0.5-0.3,0.9-0.5,1.4c-0.2,0.5-0.4,0.9-0.6,1.3c-0.2,0.4-0.5,0.9-0.8,1.3c-0.3,0.4-0.6,0.8-0.9,1.2
			c-0.3,0.4-0.6,0.8-1,1.1c-0.3,0.4-0.7,0.7-1.1,1c-0.4,0.3-0.8,0.6-1.2,0.9c-0.4,0.3-0.8,0.5-1.3,0.8c-0.4,0.2-0.9,0.4-1.3,0.6
			c-0.5,0.2-0.9,0.4-1.4,0.5c-0.5,0.1-0.9,0.3-1.4,0.4c-0.5,0.1-1,0.2-1.5,0.2C345.2,447.4,344.7,447.5,344.2,447.5z"/>
	</g>
	<g>
		<path class="st2" d="M432.7,447.4c-0.5,0-1,0-1.5-0.1c-0.5,0-1-0.1-1.5-0.2c-0.5-0.1-1-0.2-1.4-0.4c-0.5-0.1-0.9-0.3-1.4-0.5
			c-0.5-0.2-0.9-0.4-1.3-0.6c-0.4-0.2-0.9-0.5-1.3-0.8c-0.4-0.3-0.8-0.6-1.2-0.9s-0.8-0.6-1.1-1c-0.3-0.4-0.7-0.7-1-1.1
			c-0.3-0.4-0.6-0.8-0.9-1.2c-0.3-0.4-0.5-0.8-0.8-1.3c-0.2-0.4-0.4-0.9-0.6-1.3c-0.2-0.5-0.4-0.9-0.5-1.4c-0.1-0.5-0.3-1-0.4-1.4
			c-0.1-0.5-0.2-1-0.2-1.5c0-0.5-0.1-1-0.1-1.5c0-0.5,0-1,0.1-1.5c0-0.5,0.1-1,0.2-1.5c0.1-0.5,0.2-1,0.4-1.4
			c0.1-0.5,0.3-0.9,0.5-1.4c0.2-0.4,0.4-0.9,0.6-1.3c0.2-0.4,0.5-0.9,0.8-1.3c0.3-0.4,0.6-0.8,0.9-1.2c0.3-0.4,0.6-0.8,1-1.1
			c0.3-0.4,0.7-0.7,1.1-1s0.8-0.6,1.2-0.9c0.4-0.3,0.8-0.5,1.3-0.8c0.4-0.2,0.9-0.4,1.3-0.6c0.4-0.2,0.9-0.4,1.4-0.5
			c0.5-0.1,0.9-0.3,1.4-0.4c0.5-0.1,1-0.2,1.5-0.2c1-0.1,2-0.1,3,0c0.5,0.1,1,0.1,1.5,0.2c0.5,0.1,1,0.2,1.4,0.4
			c0.5,0.1,0.9,0.3,1.4,0.5c0.5,0.2,0.9,0.4,1.3,0.6c0.4,0.2,0.9,0.5,1.3,0.8c0.4,0.3,0.8,0.6,1.2,0.9c0.4,0.3,0.8,0.6,1.1,1
			c0.3,0.3,0.7,0.7,1,1.1c0.3,0.4,0.6,0.8,0.9,1.2c0.3,0.4,0.5,0.8,0.8,1.3c0.2,0.4,0.4,0.9,0.6,1.3c0.2,0.5,0.3,0.9,0.5,1.4
			c0.2,0.5,0.3,0.9,0.4,1.4c0.1,0.5,0.2,1,0.2,1.5c0.1,0.5,0.1,1,0.1,1.5c0,0.5,0,1-0.1,1.5c0,0.5-0.1,1-0.2,1.5
			c-0.1,0.5-0.2,0.9-0.4,1.4c-0.1,0.5-0.3,0.9-0.5,1.4c-0.2,0.5-0.4,0.9-0.6,1.3c-0.2,0.4-0.5,0.9-0.8,1.3c-0.3,0.4-0.6,0.8-0.9,1.2
			c-0.3,0.4-0.6,0.7-1,1.1c-0.3,0.4-0.7,0.7-1.1,1c-0.4,0.3-0.8,0.6-1.2,0.9c-0.4,0.3-0.8,0.5-1.3,0.8c-0.4,0.2-0.9,0.4-1.3,0.6
			c-0.5,0.2-0.9,0.4-1.4,0.5c-0.5,0.1-0.9,0.3-1.4,0.4c-0.5,0.1-1,0.2-1.5,0.2C433.7,447.4,433.2,447.4,432.7,447.4z"/>
	</g>
	<g>
		<g>
			<path class="st0" d="M255.7,93.5h-177c-8.3,0-15-6.7-15-15s6.7-15,15-15h177c8.3,0,15,6.7,15,15S264,93.5,255.7,93.5z"/>
		</g>
		<g>
			<path class="st0" d="M189.7,184.2H78.8c-8.3,0-15-6.7-15-15s6.7-15,15-15h110.9c8.3,0,15,6.7,15,15S198,184.2,189.7,184.2z"/>
		</g>
		<g>
			<path class="st0" d="M78.8,270.5c-0.5,0-1,0-1.5-0.1c-0.5-0.1-1-0.1-1.5-0.2c-0.5-0.1-1-0.2-1.4-0.4c-0.5-0.1-0.9-0.3-1.4-0.5
				c-0.5-0.2-0.9-0.4-1.3-0.6s-0.9-0.5-1.3-0.8c-0.4-0.3-0.8-0.6-1.2-0.9s-0.7-0.6-1.1-1s-0.7-0.7-1-1.1c-0.3-0.4-0.6-0.8-0.9-1.2
				c-0.3-0.4-0.5-0.8-0.8-1.3c-0.2-0.4-0.4-0.9-0.6-1.3c-0.2-0.4-0.4-0.9-0.5-1.4c-0.1-0.5-0.3-0.9-0.4-1.4c-0.1-0.5-0.2-1-0.2-1.5
				c0-0.5-0.1-1-0.1-1.5c0-0.5,0-1,0.1-1.5c0.1-0.5,0.1-1,0.2-1.5c0.1-0.5,0.2-1,0.4-1.4c0.1-0.5,0.3-0.9,0.5-1.4
				c0.2-0.5,0.4-0.9,0.6-1.3c0.2-0.4,0.5-0.9,0.8-1.3c0.3-0.4,0.6-0.8,0.9-1.2c0.3-0.4,0.6-0.8,1-1.1c0.3-0.4,0.7-0.7,1.1-1
				c0.4-0.3,0.8-0.6,1.2-0.9c0.4-0.3,0.8-0.5,1.3-0.8s0.9-0.4,1.3-0.6c0.5-0.2,0.9-0.4,1.4-0.5c0.5-0.1,1-0.3,1.4-0.4
				c0.5-0.1,1-0.2,1.5-0.2c1-0.1,2-0.1,3,0c0.5,0,1,0.1,1.5,0.2c0.5,0.1,1,0.2,1.4,0.4c0.5,0.1,0.9,0.3,1.4,0.5
				c0.5,0.2,0.9,0.4,1.3,0.6s0.9,0.5,1.3,0.8c0.4,0.3,0.8,0.6,1.2,0.9c0.4,0.3,0.7,0.6,1.1,1c0.3,0.3,0.7,0.7,1,1.1
				c0.3,0.4,0.6,0.8,0.9,1.2c0.3,0.4,0.5,0.8,0.8,1.3c0.2,0.4,0.4,0.9,0.6,1.3c0.2,0.4,0.3,0.9,0.5,1.4c0.1,0.5,0.3,0.9,0.4,1.4
				c0.1,0.5,0.2,1,0.2,1.5c0,0.5,0.1,1,0.1,1.5c0,0.5,0,1-0.1,1.5c0,0.5-0.1,1-0.2,1.5c-0.1,0.5-0.2,1-0.4,1.4
				c-0.1,0.5-0.3,0.9-0.5,1.4c-0.2,0.5-0.4,0.9-0.6,1.3c-0.2,0.4-0.5,0.9-0.8,1.3c-0.3,0.4-0.6,0.8-0.9,1.2c-0.3,0.4-0.6,0.8-1,1.1
				s-0.7,0.7-1.1,1s-0.8,0.6-1.2,0.9c-0.4,0.3-0.8,0.5-1.3,0.8s-0.9,0.4-1.3,0.6c-0.5,0.2-0.9,0.4-1.4,0.5c-0.5,0.1-1,0.3-1.4,0.4
				c-0.5,0.1-1,0.2-1.5,0.2C79.8,270.5,79.3,270.5,78.8,270.5z"/>
		</g>
	</g>
	<g>
		<path class="st2" d="M78.8,263c-0.5,0-1,0-1.5-0.1c-0.5-0.1-0.9-0.2-1.4-0.4c-0.5-0.2-0.9-0.4-1.3-0.7c-0.4-0.3-0.8-0.6-1.1-0.9
			c-0.3-0.4-0.7-0.7-0.9-1.1c-0.3-0.4-0.5-0.9-0.7-1.3c-0.2-0.5-0.3-0.9-0.4-1.4c-0.1-0.5-0.1-1-0.1-1.5c0-0.5,0-1,0.1-1.5
			c0.1-0.5,0.2-1,0.4-1.4c0.2-0.4,0.4-0.9,0.7-1.3c0.3-0.4,0.6-0.8,0.9-1.1c0.4-0.4,0.7-0.7,1.1-0.9c0.4-0.3,0.8-0.5,1.3-0.7
			c0.5-0.2,0.9-0.3,1.4-0.4c1-0.2,2-0.2,2.9,0c0.5,0.1,1,0.2,1.4,0.4c0.4,0.2,0.9,0.4,1.3,0.7c0.4,0.3,0.8,0.6,1.1,0.9
			c0.3,0.3,0.7,0.7,0.9,1.1c0.3,0.4,0.5,0.8,0.7,1.3c0.2,0.5,0.3,0.9,0.4,1.4s0.2,1,0.2,1.5c0,0.5-0.1,1-0.2,1.5
			c-0.1,0.5-0.2,1-0.4,1.4c-0.2,0.4-0.4,0.9-0.7,1.3c-0.3,0.4-0.6,0.8-0.9,1.1c-0.3,0.3-0.7,0.7-1.1,0.9c-0.4,0.3-0.8,0.5-1.3,0.7
			c-0.5,0.2-0.9,0.3-1.4,0.4C79.8,262.9,79.3,263,78.8,263z"/>
	</g>
</g>
</svg>
