<svg id="Layer_1" data-name="Layer 1" xmlns="http://www.w3.org/2000/svg" width="512" height="512" viewBox="0 0 512 512">
  <g>
    <path d="M96.1,371.64H48.39a6.38,6.38,0,0,1,0-12.76H96.1a6.38,6.38,0,1,1,0,12.76Z" fill="#fff"/>
    <path d="M78.3,405H48.4a6.38,6.38,0,1,1,0-12.76H78.3a6.38,6.38,0,0,1,0,12.76Z" fill="#fff"/>
    <path d="M461.7,371.64H414a6.38,6.38,0,0,1,0-12.76H461.7a6.38,6.38,0,1,1,0,12.76Z" fill="#fff"/>
    <path d="M194.82,436.82a39,39,0,1,1,39-39A39,39,0,0,1,194.82,436.82Zm0-65.18A26.21,26.21,0,1,0,221,397.85,26.24,26.24,0,0,0,194.82,371.64Z" fill="#fff"/>
    <path d="M292.83,436.82a6.38,6.38,0,0,1-6.38-6.38V365.26a6.38,6.38,0,0,1,12.76,0v65.18A6.38,6.38,0,0,1,292.83,436.82Z" fill="#fff"/>
    <path d="M340.55,436.82a6.38,6.38,0,0,1-5.16-2.62L287.69,369A6.38,6.38,0,1,1,298,361.49l47.71,65.18a6.39,6.39,0,0,1-5.14,10.15Z" fill="#fff"/>
    <path d="M340.54,436.82a6.38,6.38,0,0,1-6.38-6.38V365.26a6.38,6.38,0,0,1,12.76,0v65.18A6.38,6.38,0,0,1,340.54,436.82Z" fill="#fff"/>
    <path d="M437.85,436.81a5.83,5.83,0,0,1-1.25-.13,6.13,6.13,0,0,1-1.2-.35,7.76,7.76,0,0,1-1.1-.59,7.28,7.28,0,0,1-1-.79,6.69,6.69,0,0,1-.79-1,5.32,5.32,0,0,1-.58-1.11,6.08,6.08,0,0,1-.37-1.19,6,6,0,0,1,0-2.49A6.3,6.3,0,0,1,432,428a5.5,5.5,0,0,1,.58-1.1,5.77,5.77,0,0,1,.79-1,6.57,6.57,0,0,1,1-.79,6.15,6.15,0,0,1,1.1-.59,5.56,5.56,0,0,1,1.2-.37,6.14,6.14,0,0,1,2.49,0,5.56,5.56,0,0,1,1.2.37,6.55,6.55,0,0,1,2.07,1.38,5.77,5.77,0,0,1,.79,1,5.5,5.5,0,0,1,.58,1.1,6.3,6.3,0,0,1,.37,1.19,6,6,0,0,1,0,2.49,6.08,6.08,0,0,1-.37,1.19,5.32,5.32,0,0,1-.58,1.11,6.15,6.15,0,0,1-1.76,1.76,7.76,7.76,0,0,1-1.1.59,6.13,6.13,0,0,1-1.2.35A5.81,5.81,0,0,1,437.85,436.81Z" fill="#fff"/>
    <path d="M48.39,436.81a5.81,5.81,0,0,1-1.24-.13,6.34,6.34,0,0,1-1.2-.35,7.14,7.14,0,0,1-1.09-.59A6.36,6.36,0,0,1,43.09,434a5.32,5.32,0,0,1-.58-1.11,6.08,6.08,0,0,1-.37-1.19,6,6,0,0,1,0-2.49,6.3,6.3,0,0,1,.37-1.19,5.5,5.5,0,0,1,.58-1.1,6.36,6.36,0,0,1,1.77-1.76,5.28,5.28,0,0,1,1.09-.6,6.41,6.41,0,0,1,7,1.39,5.77,5.77,0,0,1,.79,1,6.1,6.1,0,0,1,.59,1.1,7.13,7.13,0,0,1,.37,1.19,7.1,7.1,0,0,1,0,2.49,6.85,6.85,0,0,1-.37,1.19A5.87,5.87,0,0,1,53.7,434a6.69,6.69,0,0,1-.79,1A6.43,6.43,0,0,1,48.39,436.81Z" fill="#fff"/>
  </g>
  <g>
    <path d="M159,269.54a19.11,19.11,0,0,1-16.21-8.94L82.49,164.85V250.4a19.14,19.14,0,1,1-38.28,0V98.56a19.14,19.14,0,0,1,35.33-10.2L175.2,240.2A19.15,19.15,0,0,1,159,269.54Z" fill="#3ec188"/>
    <path d="M159,269.54a19.14,19.14,0,0,1-16.17-29.34L238.46,88.36a19.14,19.14,0,0,1,35.34,10.2V250.4a19.14,19.14,0,0,1-38.28,0V164.85L175.2,260.6A19.13,19.13,0,0,1,159,269.54Z" fill="#3ec188"/>
  </g>
  <path d="M446,269.54a19.08,19.08,0,0,1-11.1-3.56l-104.4-74.53a19.15,19.15,0,0,1-.27-31l104.4-77.31a19.14,19.14,0,0,1,22.78,30.76l-83.24,61.65,83,59.23A19.14,19.14,0,0,1,446,269.54Z" fill="#fff"/>
</svg>
