<svg xmlns="http://www.w3.org/2000/svg" width="100" height="100" viewBox="0 0 100 100"><defs><style>.cls-1{fill:#fff;}.cls-2{opacity:0.5;}.cls-3{fill:none;stroke:#fff;stroke-linecap:round;stroke-linejoin:round;stroke-width:5px;}</style></defs><g id="main"><circle class="cls-1" cx="82.08" cy="17.92" r="7.92"/><circle class="cls-1" cx="17.92" cy="17.92" r="7.92"/><circle class="cls-1" cx="82.08" cy="82.08" r="7.92"/><circle class="cls-1" cx="17.92" cy="82.08" r="7.92"/><circle class="cls-1" cx="17.92" cy="50" r="7.92"/><circle class="cls-1" cx="82.08" cy="50" r="7.92"/><circle class="cls-1" cx="50" cy="50" r="7.92"/><circle class="cls-1" cx="50" cy="82.08" r="7.92"/><circle class="cls-1" cx="50" cy="17.92" r="7.92"/><g class="cls-2"><path class="cls-3" d="M74.17,81.87a10.22,10.22,0,0,1-2.09.21H57.92"/><path class="cls-3" d="M82.08,57.92V72.08a10.29,10.29,0,0,1-.21,2.09"/><path class="cls-3" d="M81.87,25.83a10.29,10.29,0,0,1,.21,2.09V42.08"/><path class="cls-3" d="M57.92,17.92H72.08a10.29,10.29,0,0,1,2.09.21"/><path class="cls-3" d="M25.73,18.15a10.57,10.57,0,0,1,2.19-.23H42.08"/><path class="cls-3" d="M17.92,42.08V27.92a10.22,10.22,0,0,1,.21-2.09"/><path class="cls-3" d="M18.13,74.17a10.22,10.22,0,0,1-.21-2.09V57.92"/><path class="cls-3" d="M42.08,82.08H27.92a10.29,10.29,0,0,1-2.09-.21"/></g></g></svg>